. 
 
http://www.torrenting.com          :     Once & For all ;)


               www . Torrenting . Com 

(((((((((((((= Enjoy No RAR releases =))))))))))))))))))))


...................................NFO:....................................

.[IMG]http://i.imgur.com/JJzjV.jpg[/IMG]
 
http://www.imdb.com/title/tt1714208/

When a successful country lawyer captures and attempts to "civilize" the last remaining member of a violent clan that has roamed the Northeast coast for decades, he puts the lives of his family in jeopardy.


General
Complete name                            : C:UsersrootDesktopThe.Woman.DVDRip.XviD.AC3-GBRThe.Woman.DVDRip.XviD.AC3-GBR.avi
Format                                   : AVI
Format/Info                              : Audio Video Interleave
File size                                : 1.12 GiB
Duration                                 : 1h 43mn
Overall bit rate                         : 1 556 Kbps
Writing application                      : VirtualDubMod 1.5.10.2 (build 2540/release)
Writing library                          : VirtualDubMod build 2540/release

Video
ID                                       : 0
Format                                   : MPEG-4 Visual
Format profile                           : Advanced Simple@L5
Format settings, BVOP                    : 1
Format settings, QPel                    : No
Format settings, GMC                     : No warppoints
Format settings, Matrix                  : Default (H.263)
Muxing mode                              : Packed bitstream
Codec ID                                 : XVID
Codec ID/Hint                            : XviD
Duration                                 : 1h 43mn
Bit rate                                 : 1 099 Kbps
Width                                    : 720 pixels
Height                                   : 400 pixels
Display aspect ratio                     : 16:9
Frame rate                               : 23.976 fps
Color space                              : YUV
Chroma subsampling                       : 4:2:0
Bit depth                                : 8 bits
Scan type                                : Progressive
Compression mode                         : Lossy
Bits/(Pixel*Frame)                       : 0.159
Stream size                              : 811 MiB (71%)
Writing library                          : XviD 1.2.1 (UTC 2008-12-04)

Audio
ID                                       : 1
Format                                   : AC-3
Format/Info                              : Audio Coding 3
Mode extension                           : CM (complete main)
Codec ID                                 : 2000
Duration                                 : 1h 43mn
Bit rate mode                            : Constant
Bit rate                                 : 448 Kbps
Channel(s)                               : 6 channels
Channel positions                        : Front: L C R, Side: L R, LFE
Sampling rate                            : 48.0 KHz
Bit depth                                : 16 bits
Compression mode                         : Lossy
Stream size                              : 331 MiB (29%)
Alignment                                : Split accross interleaves
Interleave, duration                     : 42 ms (1.00 video frame)
Interleave, preload duration             : 500 ms

Source The Woman 2011 WS NTSC DVD9 

[IMG]http://i.imgur.com/0RHXe.png[/IMG]
[IMG]http://i.imgur.com/w8IjR.png[/IMG]
[IMG]http://i.imgur.com/oeylf.png[/IMG]